<svg width="27" height="83" viewBox="0 0 27 83" fill="none" xmlns="http://www.w3.org/2000/svg">
<path d="M8.67253 0.686468L1.09239 3.69555L4.05151 11.3155L11.6316 8.30644L8.67253 0.686468ZM5.44929 5.60168C4.9732 6.69674 4.53499 7.79237 4.13323 8.88777L6.0027 9.57643C6.39087 8.51812 6.8144 7.45916 7.27474 6.40031L5.44929 5.60168ZM2.09767 15.6661C1.54712 18.0018 1.15054 20.3277 0.8937 22.636L2.87451 22.8517C3.12255 20.6226 3.50545 18.377 4.03692 16.1223L2.09767 15.6661ZM0.529175 29.6942C0.545549 32.0757 0.700396 34.4282 0.976913 36.7423L2.95587 36.4949C2.68793 34.2526 2.53817 31.9755 2.52234 29.6724L0.529175 29.6942ZM2.18331 43.6868C2.71023 46.0009 3.35015 48.2638 4.08432 50.4655L5.97414 49.8201C5.2598 47.6779 4.63789 45.4782 4.12621 43.2311L2.18331 43.6868ZM6.61474 57.0229C7.5725 59.2033 8.61423 61.3048 9.71819 63.3157L11.4635 62.3397C10.387 60.3787 9.37146 58.3299 8.43816 56.2052L6.61474 57.0229ZM13.3605 69.3132C14.708 71.3267 16.1053 73.214 17.5229 74.9587L19.0677 73.6845C17.6892 71.9879 16.3284 70.1502 15.0149 68.1874L13.3605 69.3132ZM22.2309 80.173C23.0964 81.0296 23.9585 81.8282 24.8105 82.5647L26.1123 81.04C25.296 80.3343 24.4667 79.5663 23.631 78.7392L22.2309 80.173Z" fill="#387CE1" fill-opacity="0.63"/>
</svg>
